<svg width="175" height="32" viewBox="0 0 175 32" fill="none" xmlns="http://www.w3.org/2000/svg">
<path d="M15.9302 11.0478C12.8251 11.0478 10.3079 8.57468 10.3079 5.52388C10.3079 2.47307 12.8251 0 15.9302 0C19.0355 0 21.5527 2.47307 21.5527 5.52388C21.5527 8.57468 19.0355 11.0478 15.9302 11.0478ZM27.9027 23.572C26.666 21.7711 25.017 20.2632 23.0877 19.178C18.6855 16.7019 13.1704 16.7017 8.76814 19.178C6.84013 20.2625 5.19198 21.7691 3.95558 23.5686C4.76135 24.7424 5.74142 25.7919 6.85952 26.6807C12.1165 30.8602 19.7433 30.8603 25.0006 26.6812C26.1179 25.7932 27.0973 24.7449 27.9027 23.572ZM2.36228 7.45307C3.81242 5.14149 5.85658 3.2302 8.28 1.92399C9.19264 4.95151 9.14691 8.24129 8.14811 11.2428C9.29885 11.0613 10.47 11.0053 11.6333 11.0751C9.72203 15.0203 6.22243 17.9933 1.98168 19.3063C2.25474 20.3156 2.63865 21.2808 3.11949 22.1885C4.43245 20.4458 6.10329 18.9812 8.02434 17.9006C12.8873 15.1651 18.9685 15.1653 23.8315 17.9006C25.754 18.982 27.4258 20.4479 28.7391 22.1922C29.221 21.2834 29.6055 20.317 29.8791 19.3063C25.6383 17.9934 22.1386 15.0201 20.2273 11.0751C21.3906 11.0053 22.5617 11.0613 23.7125 11.2428C22.7137 8.24129 22.668 4.95151 23.5806 1.92399C26.004 3.2302 28.0482 5.14149 29.4983 7.45307C32.9721 12.9906 32.5668 20.0309 28.6023 25.1378L29.7651 26.0963L28.8046 27.2241L27.6401 26.2642C27.3499 26.5731 27.0474 26.8706 26.7331 27.1556L27.7102 28.2997L26.5622 29.2435L25.587 28.1014C25.2468 28.3565 24.8959 28.5984 24.5348 28.8265L25.2954 30.1206L24.001 30.8515L23.2427 29.5609C22.8628 29.7542 22.4741 29.9328 22.0773 30.0959L22.597 31.4993L21.1915 32L20.6723 30.5986C17.6044 31.5375 14.2562 31.5375 11.1882 30.5986L10.6691 32L9.26356 31.4994L9.78334 30.0959C9.3865 29.9328 8.99779 29.7542 8.61785 29.5609L7.85947 30.8515L6.56525 30.1206L7.32578 28.8265C6.96473 28.5984 6.61379 28.3565 6.27363 28.1014L5.29836 29.2435L4.15027 28.2997L5.12753 27.1556C4.81321 26.8704 4.51065 26.573 4.22052 26.2642L3.05603 27.2241L2.09551 26.0963L3.25834 25.1377C-0.696417 20.0434 -1.11877 13.002 2.36228 7.45307ZM20.426 22.3976C19.8049 22.3976 19.3014 22.8922 19.3014 23.5023C19.3014 24.1124 19.8049 24.6072 20.426 24.6072C21.047 24.6072 21.5504 24.1124 21.5504 23.5023C21.5504 22.8922 21.047 22.3976 20.426 22.3976ZM11.4298 22.3976C12.0508 22.3976 12.5544 22.8922 12.5544 23.5023C12.5544 24.1124 12.0508 24.6072 11.4298 24.6072C10.8088 24.6072 10.3053 24.1124 10.3053 23.5023C10.3053 22.8922 10.8088 22.3976 11.4298 22.3976ZM22.8792 12.6121C24.6781 15.0805 27.2424 16.928 30.1876 17.8601C30.717 14.529 30.0317 11.1003 28.2275 8.2242C27.2724 6.70181 26.032 5.37004 24.5797 4.30053C24.1087 7.45421 24.7262 10.6901 26.3515 13.4554C25.235 13.0336 24.0672 12.7489 22.8792 12.6121ZM17.2826 5.32642C17.6026 5.14409 17.762 4.79068 17.7222 4.46624C17.6496 3.87646 17.0183 3.70733 16.5048 3.67591V2.85985H15.9927V3.6663C15.8784 3.6663 15.7448 3.6663 15.6026 3.6663V2.85985H15.0905V3.6663C14.5677 3.6663 14.0829 3.6663 14.0829 3.6663V4.18885C14.0829 4.18885 14.2983 4.18885 14.379 4.18885C14.6252 4.18885 14.7362 4.24909 14.7362 4.4975C14.7362 4.62789 14.7362 6.53023 14.7362 6.57956C14.7362 6.74462 14.6434 6.7793 14.4945 6.7793C14.3916 6.7793 14.1883 6.7793 14.1883 6.7793L14.0829 7.38373C14.0829 7.38373 14.5836 7.38373 15.0905 7.38373V8.1879H15.6026V7.38373C15.7599 7.38373 15.8969 7.38373 15.9927 7.38373V8.1879H16.5048V7.37038C17.3146 7.32398 17.9823 7.1555 18.0029 6.19863C18.0133 5.72101 17.75 5.42344 17.2826 5.32642ZM15.6026 4.23541C15.9705 4.20351 16.764 4.18527 16.7776 4.69626C16.792 5.24893 15.9841 5.21767 15.6026 5.20644V4.23541ZM15.6026 6.78646V5.70718C16.0165 5.68634 17.0074 5.64873 17.0074 6.23151C17.0074 6.8322 16.0338 6.79541 15.6026 6.78646ZM8.98138 12.6121C7.7932 12.7489 6.62556 13.0336 5.50912 13.4554C7.14285 10.6613 7.75724 7.48954 7.28087 4.30053C5.82857 5.37004 4.5882 6.70181 3.63314 8.2242C1.82891 11.1003 1.1436 14.529 1.67299 17.8601C4.61819 16.928 7.18245 15.0805 8.98138 12.6121ZM15.9302 9.57469C18.2077 9.57469 20.0535 7.76123 20.0535 5.52388C20.0535 3.28652 18.2077 1.47307 15.9302 1.47307C13.6529 1.47307 11.8071 3.28652 11.8071 5.52388C11.8071 7.76123 13.6529 9.57469 15.9302 9.57469Z" fill="white"/>
<path d="M44.7911 24.0644C49.3507 24.0644 51.5116 21.8246 51.5116 19.2075C51.5116 13.2192 41.6564 15.4823 41.6564 12.0059C41.6564 10.7655 42.7012 9.7855 45.266 9.7855C46.7147 9.7855 48.3532 10.2055 49.8492 11.0688L50.823 8.7124C49.3744 7.77914 47.2845 7.26571 45.2897 7.26571C40.7302 7.26571 38.5929 9.50566 38.5929 12.1459C38.5929 18.2042 48.472 15.8983 48.472 19.4214C48.472 20.6346 47.3796 21.5446 44.7911 21.5446C42.7488 21.5446 40.6352 20.7979 39.3054 19.7481L38.2366 22.1045C39.614 23.2712 42.2025 24.0644 44.7911 24.0644ZM75.9244 7.49914L71.6735 19.9814L67.4702 7.49914H64.6204L60.322 19.9114L56.19 7.49914H52.984L58.4934 23.831H61.7944L65.974 11.7455L70.0824 23.831H73.3596L78.869 7.49914H75.9244ZM93.3077 23.831H96.5374L89.0332 7.49914H85.9934L78.5128 23.831H81.6951L83.3336 20.0514H91.6453L93.3077 23.831ZM84.3785 17.6716L87.4896 10.5322L90.6243 17.6716H84.3785ZM105.49 7.49914H98.651V23.831H101.738V19.1181H105.49C109.86 19.1181 112.567 16.9016 112.567 13.3085C112.567 9.69222 109.86 7.49914 105.49 7.49914ZM105.348 16.5516H101.738V10.0655H105.348C108.055 10.0655 109.456 11.2555 109.456 13.3085C109.456 15.3618 108.055 16.5516 105.348 16.5516ZM121.045 24.0644C125.605 24.0644 127.766 21.8246 127.766 19.2075C127.766 13.2192 117.91 15.4823 117.91 12.0059C117.91 10.7655 118.955 9.7855 121.52 9.7855C122.969 9.7855 124.607 10.2055 126.103 11.0688L127.077 8.7124C125.628 7.77914 123.539 7.26571 121.544 7.26571C116.984 7.26571 114.847 9.50566 114.847 12.1459C114.847 18.2042 124.726 15.8983 124.726 19.4214C124.726 20.6346 123.634 21.5446 121.045 21.5446C119.003 21.5446 116.889 20.7979 115.559 19.7481L114.491 22.1045C115.868 23.2712 118.457 24.0644 121.045 24.0644ZM133.964 23.831H137.051V10.0655H142.561V7.49914H128.454V10.0655H133.964V23.831ZM147.975 21.2879V16.7849H156.002V14.2885H147.975V10.0422H157.023V7.49914H144.888V23.831H157.355V21.2879H147.975ZM175 23.831L171.177 18.4648C173.433 17.6016 174.715 15.7818 174.715 13.3085C174.715 9.69222 172.008 7.49914 167.638 7.49914H160.799V23.831H163.886V19.0714H167.638C167.852 19.0714 168.066 19.0714 168.279 19.0481L171.675 23.831H175ZM171.604 13.3085C171.604 15.3618 170.203 16.575 167.496 16.575H163.886V10.0655H167.496C170.203 10.0655 171.604 11.2555 171.604 13.3085Z" fill="white"/>
</svg>
